<svg xmlns="http://www.w3.org/2000/svg" viewBox="0 0 1920 1080"><g transform="
          rotate(0 960 540) 
          translate(-0 -0)
          scale(1)
        "><rect width="1920" height="1080" fill="rgb(243, 244, 246)"></rect><g transform="translate(0, 0)"><path fill="rgb(162, 200, 244)" fill-opacity="1" d="M0,158.065L45.714,137.398C91.429,116.731,182.857,75.398,274.286,100.965C365.714,126.532,457.143,218.999,548.571,251.612C640,284.225,731.429,256.984,822.857,261.589C914.286,266.193,1005.714,302.644,1097.143,268.729C1188.571,234.814,1280,130.534,1371.429,99.693C1462.857,68.853,1554.286,111.452,1645.714,114.529C1737.143,117.606,1828.571,81.161,1874.286,62.938L1920,44.715L1920,1080L1874.286,1080C1828.571,1080,1737.143,1080,1645.714,1080C1554.286,1080,1462.857,1080,1371.429,1080C1280,1080,1188.571,1080,1097.143,1080C1005.714,1080,914.286,1080,822.857,1080C731.429,1080,640,1080,548.571,1080C457.143,1080,365.714,1080,274.286,1080C182.857,1080,91.429,1080,45.714,1080L0,1080Z"></path></g><g transform="translate(0, 360)"><path fill="rgb(81, 156, 242)" fill-opacity="1" d="M0,239.507L45.714,221.229C91.429,202.95,182.857,166.393,274.286,150.842C365.714,135.291,457.143,140.745,548.571,156.29C640,171.836,731.429,197.472,822.857,216.841C914.286,236.21,1005.714,249.313,1097.143,226.705C1188.571,204.097,1280,145.779,1371.429,122.907C1462.857,100.035,1554.286,112.609,1645.714,121.579C1737.143,130.549,1828.571,135.914,1874.286,138.597L1920,141.28L1920,720L1874.286,720C1828.571,720,1737.143,720,1645.714,720C1554.286,720,1462.857,720,1371.429,720C1280,720,1188.571,720,1097.143,720C1005.714,720,914.286,720,822.857,720C731.429,720,640,720,548.571,720C457.143,720,365.714,720,274.286,720C182.857,720,91.429,720,45.714,720L0,720Z"></path></g><g transform="translate(0, 720)"><path fill="rgb(0, 112, 240)" fill-opacity="1" d="M0,3.399L45.714,57.759C91.429,112.118,182.857,220.838,274.286,241.48C365.714,262.122,457.143,194.686,548.571,199.444C640,204.203,731.429,281.156,822.857,277.881C914.286,274.607,1005.714,191.106,1097.143,178.234C1188.571,165.361,1280,223.118,1371.429,225.62C1462.857,228.122,1554.286,175.37,1645.714,170.599C1737.143,165.829,1828.571,209.04,1874.286,230.646L1920,252.251L1920,360L1874.286,360C1828.571,360,1737.143,360,1645.714,360C1554.286,360,1462.857,360,1371.429,360C1280,360,1188.571,360,1097.143,360C1005.714,360,914.286,360,822.857,360C731.429,360,640,360,548.571,360C457.143,360,365.714,360,274.286,360C182.857,360,91.429,360,45.714,360L0,360Z"></path></g></g></svg>